<?xml version="1.0" encoding="UTF-8"?>
<svg version="1.1" xmlns="http://www.w3.org/2000/svg" width="512" height="512">
<path d="M0 0 C1.30365551 1.08998583 2.59459989 2.19528814 3.875 3.3125 C4.84308594 4.08464844 5.81117188 4.85679688 6.80859375 5.65234375 C16.20903059 13.49929362 22.8360653 24.86925046 26.875 36.3125 C27.22949219 37.27712158 27.58398438 38.24174316 27.94921875 39.2355957 C31.88546275 51.56852273 31.32190736 63.92594362 31.125 76.75 C31.10489351 79.04230201 31.08665012 81.33462116 31.0703125 83.62695312 C31.02667167 89.189182 30.96009251 94.75075874 30.875 100.3125 C31.98109619 100.29880371 33.08719238 100.28510742 34.22680664 100.27099609 C42.06435113 100.36016042 49.29806074 104.99386108 54.875 110.3125 C60.78964624 117.61728482 63.17676004 124.23990913 63.16552734 133.66601562 C63.17224457 134.48321075 63.17896179 135.30040588 63.18588257 136.1423645 C63.20482143 138.83455559 63.20878565 141.52649649 63.2109375 144.21875 C63.2173717 146.10477803 63.22410052 147.99080507 63.23110962 149.87683105 C63.2430746 153.83099679 63.24679159 157.78507525 63.24560547 161.73925781 C63.24540311 166.77124367 63.27262218 171.80265947 63.30714989 176.8345108 C63.32955409 180.73309827 63.33343879 184.63155193 63.33238602 188.53019714 C63.33472488 190.38309174 63.34345009 192.23599101 63.35905075 194.08882141 C63.51794441 214.92207311 58.74822372 231.89179565 43.875 247.3125 C30.54492657 259.04005094 15.7056874 264.79298558 -1.98364258 264.71655273 C-3.67870186 264.72684761 -3.67870186 264.72684761 -5.40800476 264.73735046 C-9.11197787 264.75552369 -12.81552349 264.75179381 -16.51953125 264.74609375 C-19.11586137 264.75066054 -21.71219028 264.75596759 -24.30851746 264.76197815 C-29.73934436 264.77089107 -35.17000982 264.76874426 -40.60083008 264.75854492 C-46.84310456 264.74707933 -53.0849486 264.76112553 -59.32716638 264.7879414 C-65.37401923 264.81292767 -71.42065372 264.81524932 -77.46756554 264.80882454 C-80.02101036 264.80867205 -82.57446376 264.81465634 -85.12787819 264.82711601 C-108.36693075 264.9245383 -126.68900963 262.12946113 -144.125 245.3125 C-150.20543183 238.40120171 -155.07591675 231.02575614 -158.125 222.3125 C-158.49403694 221.31412361 -158.49403694 221.31412361 -158.87052917 220.295578 C-161.91228777 210.90874359 -161.57932998 201.4971028 -161.55859375 191.7421875 C-161.56316328 189.85132664 -161.56847113 187.96046744 -161.57447815 186.0696106 C-161.58337051 182.12430025 -161.5810288 178.17919277 -161.57104492 174.23388672 C-161.55953341 169.19591816 -161.57981997 164.15864828 -161.60896206 159.12077141 C-161.62736259 155.22237763 -161.62702438 151.32415036 -161.62132454 147.42572403 C-161.62117194 145.56870668 -161.62716513 143.71167761 -161.63961601 141.854702 C-161.74590252 123.41476952 -161.74590252 123.41476952 -157.125 116.3125 C-156.66738281 115.51457031 -156.20976562 114.71664062 -155.73828125 113.89453125 C-150.87165039 107.27415954 -144.29040266 102.08758753 -136.125 100.3125 C-133.79179813 100.2877314 -131.45817187 100.28505092 -129.125 100.3125 C-129.13388245 99.73193344 -129.14276489 99.15136688 -129.1519165 98.5532074 C-129.24134837 92.43604518 -129.30112556 86.31907262 -129.34472656 80.20141602 C-129.36467397 77.92725057 -129.39184184 75.65313527 -129.42675781 73.37915039 C-129.67137532 57.02215353 -129.16817164 42.6779841 -121.3125 27.9375 C-120.96920654 27.27250488 -120.62591309 26.60750977 -120.2722168 25.92236328 C-117.43764668 20.57926057 -114.10247632 15.870956 -110.125 11.3125 C-108.96677734 9.86037109 -108.96677734 9.86037109 -107.78515625 8.37890625 C-99.77117411 -1.22163081 -88.61503866 -7.26593272 -77.125 -11.6875 C-75.45630859 -12.33912109 -75.45630859 -12.33912109 -73.75390625 -13.00390625 C-49.0695884 -21.04522205 -20.46495623 -15.7264261 0 0 Z M-91.125 16.3125 C-91.84171875 16.91707031 -92.5584375 17.52164063 -93.296875 18.14453125 C-107.10238991 30.85309633 -110.86163542 46.20558339 -113.125 64.3125 C-113.125 76.1925 -113.125 88.0725 -113.125 100.3125 C-70.885 100.3125 -28.645 100.3125 14.875 100.3125 C16.41325774 56.90993181 16.41325774 56.90993181 -2.125 21.3125 C-2.67800781 20.64734375 -3.23101562 19.9821875 -3.80078125 19.296875 C-15.1834218 6.75619906 -31.56037534 1.36039695 -47.98925781 0.37597656 C-64.1562321 -0.10452336 -78.91955324 5.97724266 -91.125 16.3125 Z M-141.93359375 124.10546875 C-146.06254965 131.75419033 -145.41924777 140.38774079 -145.390625 148.8203125 C-145.39197583 150.23265652 -145.39391983 151.64500008 -145.39642334 153.05734253 C-145.39936072 156.01092984 -145.39512573 158.96439565 -145.38574219 161.91796875 C-145.37441153 165.66285076 -145.38087512 169.40744396 -145.39288712 173.15231514 C-145.40019754 176.06953002 -145.39777521 178.98667921 -145.39263153 181.90389633 C-145.39131694 183.28228669 -145.39286384 184.66068343 -145.39759064 186.03906631 C-145.44836889 205.02147444 -143.59607347 220.50027937 -130.0234375 234.4765625 C-117.79652191 246.01220371 -103.72216052 248.46646656 -87.49707031 248.45776367 C-86.5802951 248.46112228 -85.6635199 248.4644809 -84.71896362 248.46794128 C-81.71366997 248.477374 -78.7084325 248.47939055 -75.703125 248.48046875 C-73.59478737 248.4836868 -71.48644996 248.48705128 -69.37811279 248.49055481 C-64.96691368 248.49652699 -60.55573411 248.49839669 -56.14453125 248.49780273 C-50.52194715 248.49770125 -44.89948972 248.51134753 -39.27693558 248.52857494 C-34.92376136 248.53975244 -30.57061721 248.54172018 -26.21743011 248.54119301 C-24.14601963 248.5423647 -22.07460816 248.54674033 -20.00321198 248.55452538 C0.31478851 248.62373802 17.69468348 248.11215756 33.0390625 233.2109375 C46.36399631 219.08750578 47.0330512 202.86613921 47.04296875 184.3984375 C47.04619042 182.97457853 47.04955514 181.55071988 47.05305481 180.12686157 C47.05900344 177.16008741 47.06089891 174.1933422 47.06030273 171.2265625 C47.06020082 167.44305552 47.07390215 163.65973495 47.09107494 159.8762722 C47.10223671 156.94216064 47.10422074 154.00809377 47.10369301 151.07396317 C47.10486493 149.67944313 47.10924195 148.28492163 47.11702538 146.89042282 C47.46707663 132.76091039 47.46707663 132.76091039 40.74264526 120.91059303 C33.59633397 114.79568967 23.32137552 115.88505894 14.4921875 115.92431641 C12.94882843 115.92024514 11.40547228 115.91490016 9.86212158 115.90838623 C5.69268827 115.89477269 1.52347901 115.89998648 -2.64595795 115.90952349 C-7.02195309 115.91715113 -11.39792983 115.91006588 -15.77392578 115.90536499 C-23.12080304 115.89991645 -30.46758965 115.90707533 -37.81445312 115.92138672 C-46.29249144 115.93771151 -54.77031326 115.93242236 -63.24834633 115.9159075 C-70.54459287 115.90226689 -77.84077447 115.90038554 -85.13702965 115.90822351 C-89.48724284 115.91288589 -93.83735448 115.91356454 -98.18756104 115.90361404 C-102.27855751 115.89490907 -106.36927653 115.9010303 -110.46024323 115.91829681 C-111.95614411 115.92224288 -113.4520686 115.92116004 -114.9479599 115.91450882 C-130.054721 115.78346653 -130.054721 115.78346653 -141.93359375 124.10546875 Z " fill="#000000" transform="translate(305.125,119.6875)"/>
<path d="M0 0 C5.22265324 1.51847091 8.72439368 6.35431606 12.30078125 10.23144531 C14.00678713 12.02662877 15.71508837 13.81963394 17.42578125 15.61035156 C18.24675293 16.4762793 19.06772461 17.34220703 19.91357422 18.234375 C22.67259087 21.04813181 25.56573401 23.63299533 28.56347656 26.18725586 C30.85238381 28.13938881 33.02609572 30.19016054 35.17578125 32.29394531 C36.28566406 33.36515625 36.28566406 33.36515625 37.41796875 34.45800781 C40.12991751 37.64257835 41.26721296 40.07482436 41.35571289 44.27758789 C39.70701518 49.57776375 35.99287183 52.68970758 32.1015625 56.53222656 C31.27375778 57.36481491 30.44595306 58.19740326 29.59306335 59.05522156 C27.84138074 60.81030315 26.08338188 62.55910018 24.31958008 64.30200195 C21.62306139 66.97176223 18.95422496 69.6671126 16.28710938 72.36621094 C14.58102794 74.06898828 12.8733961 75.77021393 11.1640625 77.46972656 C10.36696365 78.27694656 9.56986481 79.08416656 8.74861145 79.91584778 C3.15577283 85.39225959 3.15577283 85.39225959 -1.08129883 86.76342773 C-5.35175341 86.60930427 -7.76054632 84.60761774 -10.69921875 81.66894531 C-11.30365151 78.31098554 -11.44447574 75.86555513 -9.58984375 72.88769531 C-7.72020168 70.70336101 -5.74291682 68.69286566 -3.69921875 66.66894531 C-2.57869912 65.53685288 -1.45896793 64.40397974 -0.33984375 63.27050781 C2.85324852 60.04898779 6.07167755 56.85434686 9.30078125 53.66894531 C-24.72609372 57.8761728 -57.84434853 69.25259157 -85.69921875 89.66894531 C-86.75109375 90.43722656 -87.80296875 91.20550781 -88.88671875 91.99707031 C-96.07588247 97.3448215 -102.78996136 103.11686546 -109.26708984 109.30419922 C-110.64620928 110.61842998 -112.04157088 111.91555192 -113.4375 113.21191406 C-149.56227167 147.76831649 -170.43170402 199.45188049 -171.98046875 248.97363281 C-172.80008719 293.54038526 -161.50678774 338.3967711 -134.69921875 374.66894531 C-133.93222656 375.71824219 -133.16523438 376.76753906 -132.375 377.84863281 C-127.04158689 385.02374676 -121.2869449 391.72848027 -115.11132812 398.18945312 C-114.17487315 399.17059371 -113.24379644 400.15689778 -112.31835938 401.1484375 C-90.37569988 424.62305982 -61.37639002 440.4538061 -31.4375 451.41503906 C-28.69921875 452.66894531 -28.69921875 452.66894531 -26.69921875 455.66894531 C-26.133705 460.03147994 -26.20599224 461.9664712 -28.76171875 465.60644531 C-32.47434202 468.2131808 -34.21980838 467.99920298 -38.69921875 467.66894531 C-78.04931195 456.69374925 -115.71044963 428.44160708 -140.69921875 396.66894531 C-141.49070313 395.69441406 -142.2821875 394.71988281 -143.09765625 393.71582031 C-150.14815995 384.86376835 -156.02182403 375.44790509 -161.69921875 365.66894531 C-162.06789063 365.04294434 -162.4365625 364.41694336 -162.81640625 363.77197266 C-191.67219748 314.37270225 -196.66192116 252.4737155 -182.42578125 197.77832031 C-173.25918248 164.38948648 -156.66487186 133.32967256 -132.921875 108.04394531 C-130.98031398 105.96930717 -129.14677622 103.84723087 -127.32421875 101.66894531 C-92.14292769 61.391299 -39.88851281 43.03653118 11.30078125 34.66894531 C10.35440796 33.73042725 10.35440796 33.73042725 9.38891602 32.77294922 C7.0517849 30.45284913 4.71691347 28.13052239 2.38354492 25.80664062 C1.3727254 24.80085328 0.36101063 23.79596483 -0.65161133 22.79199219 C-2.10603731 21.34968048 -3.5572249 19.90417859 -5.0078125 18.45800781 C-5.88236084 17.58869629 -6.75690918 16.71938477 -7.65795898 15.82373047 C-10.05017437 13.29847117 -10.61546825 12.29707408 -11.07421875 8.85644531 C-10.69921875 5.66894531 -10.69921875 5.66894531 -8.69921875 2.79394531 C-5.64364916 0.62958352 -3.74565335 -0.10785017 0 0 Z " fill="#000000" transform="translate(223.69921875,-0.6689453125)"/>
<path d="M0 0 C2.88148728 0.73335617 5.57097081 1.79419651 8.3125 2.9375 C9.0866626 3.25178955 9.8608252 3.5660791 10.65844727 3.88989258 C13.11631649 4.90314874 15.55961304 5.94537993 18 7 C18.78407227 7.33708984 19.56814453 7.67417969 20.37597656 8.02148438 C37.99552917 15.70762074 54.17856734 25.76375405 69 38 C69.57057129 38.46905762 70.14114258 38.93811523 70.72900391 39.42138672 C91.37659761 56.49914829 108.73745597 76.6559421 122 100 C122.3904248 100.68513672 122.78084961 101.37027344 123.18310547 102.07617188 C152.27786426 153.74464629 158.82874155 215.89726787 142.93164062 272.8828125 C138.66458062 287.16001956 133.11101027 301.04038357 126.00488281 314.14208984 C124.97916773 316.03851641 123.98564643 317.94979296 122.9921875 319.86328125 C114.93277301 335.07780957 104.57591076 348.87130243 92.62109375 361.23828125 C90.77891159 363.17929882 89.06727836 365.09271945 87.37890625 367.15625 C85.4937646 369.40975266 83.72682281 371.29976157 81.5 373.1875 C80.8090625 373.77402344 80.118125 374.36054688 79.40625 374.96484375 C78.6121875 375.63644531 77.818125 376.30804688 77 377 C76.0615625 377.82628906 75.123125 378.65257812 74.15625 379.50390625 C54.70446161 396.53037672 32.20542696 409.94238516 8 419 C6.90123535 419.41306396 6.90123535 419.41306396 5.78027344 419.83447266 C-12.24098 426.48717836 -31.05364623 430.12296109 -50 433 C-49.36908447 433.59949463 -48.73816895 434.19898926 -48.08813477 434.81665039 C-45.74078917 437.06136322 -43.40753792 439.31958327 -41.08276367 441.58764648 C-40.07642491 442.56392599 -39.06475164 443.53473926 -38.04760742 444.49975586 C-36.58094277 445.89312321 -35.13499487 447.30544069 -33.69140625 448.72265625 C-32.81685791 449.56578369 -31.94230957 450.40891113 -31.04125977 451.27758789 C-28.55097429 454.59886206 -28.14845426 456.88496787 -28 461 C-29.13650944 463.37633793 -30.14441029 465.14441029 -32 467 C-36.14797237 467.90942792 -39.62849634 467.86916259 -43.26879883 465.56219482 C-45.68547997 463.43881632 -47.92574599 461.21673965 -50.15625 458.8984375 C-50.98459351 458.06921783 -51.81293701 457.23999817 -52.66638184 456.38565063 C-54.40816182 454.63249332 -56.13898495 452.86839052 -57.859375 451.09423828 C-60.49461086 448.38054958 -63.16535056 445.70618124 -65.84375 443.03515625 C-67.53347359 441.32511097 -69.22104965 439.61294047 -70.90625 437.8984375 C-71.70405884 437.0982016 -72.50186768 436.2979657 -73.32385254 435.47348022 C-76.36464829 432.31352539 -78.66805581 429.90225256 -80.19335938 425.75634766 C-79.70846536 418.84415898 -73.66495207 414.32676852 -69.04296875 409.671875 C-68.26238602 408.88226379 -67.48180328 408.09265259 -66.67756653 407.27911377 C-65.02858329 405.61565195 -63.37679888 403.95496286 -61.72241211 402.296875 C-59.19464536 399.75717908 -56.68613837 397.19942818 -54.17773438 394.640625 C-52.57146515 393.02489494 -50.96408011 391.41027325 -49.35546875 389.796875 C-48.23485298 388.64696075 -48.23485298 388.64696075 -47.09159851 387.47381592 C-41.84144471 382.26856575 -41.84144471 382.26856575 -37.6496582 380.93066406 C-33.35443524 381.04306094 -30.95302469 383.04697531 -28 386 C-27.39556724 389.35795977 -27.25474301 391.80339018 -29.109375 394.78125 C-30.97901707 396.9655843 -32.95630193 398.97607966 -35 401 C-36.12051963 402.13209244 -37.24025082 403.26496557 -38.359375 404.3984375 C-41.55246727 407.61995752 -44.7708963 410.81459846 -48 414 C-1.65767171 407.83544291 37.85458728 388.86905187 72 357 C72.81210937 356.24203125 73.62421875 355.4840625 74.4609375 354.703125 C81.38655024 348.01783321 87.24693715 340.68860747 93 333 C93.62648438 332.16855469 94.25296875 331.33710938 94.8984375 330.48046875 C113.52983422 304.80762867 126.03749141 274.30415549 131 243 C131.11424316 242.3080957 131.22848633 241.61619141 131.34619141 240.90332031 C139.74153873 187.84472524 124.75267676 132.64029705 93.47265625 89.48828125 C87.81986576 81.85623486 81.5543269 74.85394001 75 68 C74.12601563 67.07316406 73.25203125 66.14632812 72.3515625 65.19140625 C65.43151438 58.03798407 58.00700489 51.87528395 50 46 C49.44425293 45.58927246 48.88850586 45.17854492 48.31591797 44.75537109 C32.78992197 33.44012364 15.05262398 24.02249052 -3.25097656 18.17895508 C-6.32243063 17.17223128 -8.64414728 16.34743017 -10.98046875 14.06640625 C-12.65538463 10.67165338 -12.65796647 7.69066248 -12 4 C-9.10319063 -0.82801562 -5.14396139 -0.5404516 0 0 Z " fill="#000000" transform="translate(327,45)"/>
<path d="M0 0 C5.85382036 5.42492659 9.32602124 11.85295983 9.97265625 19.828125 C10.18264484 28.0176799 7.85268414 35.53205682 2.296875 41.68359375 C-1.18240616 44.80800366 -4.81026064 46.79372344 -9.02734375 48.828125 C-9.0413623 50.02356934 -9.0413623 50.02356934 -9.05566406 51.24316406 C-9.10935873 54.85544675 -9.19300983 58.46643321 -9.27734375 62.078125 C-9.29152344 63.33238281 -9.30570312 64.58664062 -9.3203125 65.87890625 C-9.35253906 67.08417969 -9.38476562 68.28945313 -9.41796875 69.53125 C-9.43891602 70.64145508 -9.45986328 71.75166016 -9.48144531 72.89550781 C-10.14265371 76.44758082 -11.22611552 77.61799352 -14.02734375 79.828125 C-17.51698646 81.20561554 -18.75211941 80.93927329 -22.27734375 79.515625 C-25.02734375 77.828125 -25.02734375 77.828125 -26.02734375 75.828125 C-26.06241514 73.86486159 -26.04113018 71.90046659 -25.9921875 69.9375 C-25.98896484 68.75285156 -25.98574219 67.56820312 -25.98242188 66.34765625 C-25.97077406 63.8498477 -25.92431406 61.35194109 -25.84179688 58.85546875 C-25.86710717 55.26140669 -25.99798823 52.2759855 -27.02734375 48.828125 C-29.39973952 46.58652267 -31.55579182 45.36288288 -34.53540039 44.05395508 C-39.38457663 41.66856134 -41.80266476 37.04421079 -44.33984375 32.453125 C-46.52262498 24.1188694 -46.72350204 16.311528 -42.87109375 8.4765625 C-38.47137575 1.16814204 -32.53025291 -3.54964377 -24.21484375 -5.671875 C-15.45127092 -6.97824611 -7.12668708 -5.32884769 0 0 Z M-26.83984375 15.078125 C-28.77540984 17.93053818 -28.91010963 20.42833538 -29.02734375 23.828125 C-27.8898518 26.61320816 -27.8898518 26.61320816 -26.02734375 28.828125 C-25.40859375 29.694375 -25.40859375 29.694375 -24.77734375 30.578125 C-21.94517433 32.60110316 -19.45510156 32.70992645 -16.02734375 32.828125 C-13.24226059 31.69063305 -13.24226059 31.69063305 -11.02734375 29.828125 C-10.44984375 29.395 -9.87234375 28.961875 -9.27734375 28.515625 C-7.38152855 25.95627448 -7.15145715 23.99301673 -7.02734375 20.828125 C-8.56626013 16.69734946 -10.144801 13.99778124 -14.02734375 11.828125 C-19.26068991 9.9000501 -22.48634228 12.07571019 -26.83984375 15.078125 Z " fill="#000000" transform="translate(274.02734375,259.171875)"/>
</svg>
