<svg width="24" height="24" viewBox="0 0 24 24" fill="none" xmlns="http://www.w3.org/2000/svg">
  <path d="M12 3V21C12 21.5523 11.5523 22 11 22H7C6.44772 22 6 21.5523 6 21V16H3C2.44772 16 2 15.5523 2 15V9C2 8.44772 2.44772 8 3 8H6V3C6 2.44772 6.44772 2 7 2H11C11.5523 2 12 2.44772 12 3ZM20.7071 7.70711C20.3166 7.31658 19.6834 7.31658 19.2929 7.70711C18.9024 8.09763 18.9024 8.7308 19.2929 9.12132C19.9332 9.76165 20.2929 10.6967 20.2929 11.7071C20.2929 12.7175 19.9332 13.6525 19.2929 14.2929C18.9024 14.6834 18.9024 15.3166 19.2929 15.7071C19.6834 16.0976 20.3166 16.0976 20.7071 15.7071C21.6883 14.7259 22.2929 13.2686 22.2929 11.7071C22.2929 10.1456 21.6883 8.68829 20.7071 7.70711ZM17.2929 10.7071C17.6834 10.3166 18.3166 10.3166 18.7071 10.7071C19.0976 11.0976 19.0976 11.7308 18.7071 12.1213C18.3166 12.5118 18 13.2386 18 14C18 14.7614 18.3166 15.4882 18.7071 15.8787C19.0976 16.2692 19.0976 16.9024 18.7071 17.2929C18.3166 17.6834 17.6834 17.6834 17.2929 17.2929C16.5118 16.5118 16 15.3431 16 14C16 12.6569 16.5118 11.4882 17.2929 10.7071Z" fill="white"/>
</svg>
