<svg width="24" height="24" viewBox="0 0 24 24" fill="none" xmlns="http://www.w3.org/2000/svg">
  <path d="M3 17H5C5.55228 17 6 17.4477 6 18V21C6 21.5523 5.55228 22 5 22H3C2.44772 22 2 21.5523 2 21V18C2 17.4477 2.44772 17 3 17ZM9 12H11C11.5523 12 12 12.4477 12 13V21C12 21.5523 11.5523 22 11 22H9C8.44772 22 8 21.5523 8 21V13C8 12.4477 8.44772 12 9 12ZM15 7H17C17.5523 7 18 7.44772 18 8V21C18 21.5523 17.5523 22 17 22H15C14.4477 22 14 21.5523 14 21V8C14 7.44772 14.4477 7 15 7ZM21 2H19C18.4477 2 18 2.44772 18 3V21C18 21.5523 18.4477 22 19 22H21C21.5523 22 22 21.5523 22 21V3C22 2.44772 21.5523 2 21 2Z" fill="white"/>
</svg>
